{
  "accessors": [
    {
      "bufferView": 3,
      "componentType": 5126,
      "count": 906,
      "max": [
        131.24562072753906,
        209.88372802734375,
        467.0066223144531
      ],
      "min": [
        -131.2456512451172,
        -174.73736572265625,
        -426.6296691894531
      ],
      "type": "VEC3"
    },
    {
      "bufferView": 3,
      "byteOffset": 10872,
      "componentType": 5126,
      "count": 906,
      "max": [
        0.9999994039535522,
        0.9999608993530273,
        0.9995919466018677
      ],
      "min": [
        -0.9999994039535522,
        -0.9999899864196777,
        -1.0
      ],
      "type": "VEC3"
    },
    {
      "bufferView": 4,
      "componentType": 5126,
      "count": 906,
      "max": [
        0.9999937415122986,
        0.9674895405769348,
        0.585409939289093,
        1.0
      ],
      "min": [
        -0.9999943375587463,
        -0.9732911586761475,
        -0.999999463558197,
        -1.0
      ],
      "type": "VEC4"
    },
    {
      "bufferView": 2,
      "componentType": 5126,
      "count": 906,
      "max": [
        0.9514638781547546,
        0.7236272096633911
      ],
      "min": [
        0.047514136880636215,
        0.08243849873542786
      ],
      "type": "VEC2"
    },
    {
      "bufferView": 1,
      "componentType": 5125,
      "count": 5424,
      "type": "SCALAR"
    },
    {
      "bufferView": 5,
      "componentType": 5126,
      "count": 11,
      "max": [
        1.0,
        0.002983027370646596,
        0.0011498730164021254,
        0.0,
        0.0015874399105086923,
        1.0,
        0.002511268248781562,
        0.0,
        4.1314125454050554e-09,
        0.0,
        1.0,
        0.0,
        2.3746477495478757e-07,
        2.1320672035217285,
        1.471425175666809,
        1.0
      ],
      "min": [
        0.00399648817256093,
        -0.0028035396244376898,
        -0.001315699191763997,
        0.0,
        -0.0014754016883671284,
        -0.002051522256806493,
        0.0,
        0.0,
        -6.80497602711938e-10,
        -0.005157657898962498,
        -0.004771881736814976,
        0.0,
        -4.1513490600664227e-07,
        -1.1594990491867065,
        -0.4353008270263672,
        1.0
      ],
      "type": "MAT4"
    },
    {
      "bufferView": 0,
      "componentType": 5123,
      "count": 906,
      "type": "VEC4"
    },
    {
      "bufferView": 4,
      "byteOffset": 14496,
      "componentType": 5126,
      "count": 906,
      "max": [
        1.0,
        0.478345662355423,
        0.2560466229915619,
        0.1797790229320526
      ],
      "min": [
        0.3695155382156372,
        0.0,
        0.0,
        0.0
      ],
      "type": "VEC4"
    },
    {
      "bufferView": 6,
      "componentType": 5126,
      "count": 77,
      "max": [
        1.559999942779541
      ],
      "min": [
        0.0
      ],
      "type": "SCALAR"
    },
    {
      "bufferView": 7,
      "componentType": 5126,
      "count": 77,
      "max": [
        8.326672684688674e-17,
        0.7541542649269104,
        1.4901161193847656e-08
      ],
      "min": [
        -9.71445146547012e-17,
        0.7541542649269104,
        1.4901161193847656e-08
      ],
      "type": "VEC3"
    },
    {
      "bufferView": 6,
      "byteOffset": 308,
      "componentType": 5126,
      "count": 78,
      "max": [
        1.559999942779541
      ],
      "min": [
        0.0
      ],
      "type": "SCALAR"
    },
    {
      "bufferView": 8,
      "componentType": 5126,
      "count": 78,
      "max": [
        -0.07230886071920395,
        0.04653269052505493,
        0.36481353640556335,
        0.9969006180763245
      ],
      "min": [
        -0.07924169301986694,
        -0.0,
        -0.07392572611570358,
        0.926913321018219
      ],
      "type": "VEC4"
    },
    {
      "bufferView": 6,
      "byteOffset": 620,
      "componentType": 5126,
      "count": 72,
      "max": [
        1.559999942779541
      ],
      "min": [
        0.0
      ],
      "type": "SCALAR"
    },
    {
      "bufferView": 7,
      "byteOffset": 924,
      "componentType": 5126,
      "count": 72,
      "max": [
        8.326672684688674e-17,
        0.9329948425292969,
        -3.552713678800501e-15
      ],
      "min": [
        -2.7755575615628914e-17,
        0.9329948425292969,
        -3.552713678800501e-15
      ],
      "type": "VEC3"
    },
    {
      "bufferView": 6,
      "byteOffset": 908,
      "componentType": 5126,
      "count": 78,
      "max": [
        1.559999942779541
      ],
      "min": [
        0.0
      ],
      "type": "SCALAR"
    },
    {
      "bufferView": 8,
      "byteOffset": 1248,
      "componentType": 5126,
      "count": 78,
      "max": [
        0.0894780233502388,
        0.004019294865429401,
        0.04962773248553276,
        0.9968806505203247
      ],
      "min": [
        0.07892400026321411,
        -0.019410526379942894,
        -0.22784891724586487,
        0.969382643699646
      ],
      "type": "VEC4"
    },
    {
      "bufferView": 6,
      "byteOffset": 1220,
      "componentType": 5126,
      "count": 45,
      "max": [
        1.559999942779541
      ],
      "min": [
        0.0
      ],
      "type": "SCALAR"
    },
    {
      "bufferView": 7,
      "byteOffset": 1788,
      "componentType": 5126,
      "count": 45,
      "max": [
        8.326672684688674e-17,
        0.9329948425292969,
        -3.552713678800501e-15
      ],
      "min": [
        -2.7755575615628914e-17,
        0.9329948425292969,
        -3.552713678800501e-15
      ],
      "type": "VEC3"
    },
    {
      "bufferView": 6,
      "byteOffset": 1400,
      "componentType": 5126,
      "count": 47,
      "max": [
        1.559999942779541
      ],
      "min": [
        0.0
      ],
      "type": "SCALAR"
    },
    {
      "bufferView": 8,
      "byteOffset": 2496,
      "componentType": 5126,
      "count": 47,
      "max": [
        -0.41781529784202576,
        1.1596705746982087e-17,
        2.5216829275528113e-17,
        0.9085319638252258
      ],
      "min": [
        -0.41781529784202576,
        -1.159670326544025e-17,
        -2.5216827621166888e-17,
        0.9085319638252258
      ],
      "type": "VEC4"
    },
    {
      "bufferView": 6,
      "byteOffset": 1588,
      "componentType": 5126,
      "count": 47,
      "max": [
        1.559999942779541
      ],
      "min": [
        0.0
      ],
      "type": "SCALAR"
    },
    {
      "bufferView": 7,
      "byteOffset": 2328,
      "componentType": 5126,
      "count": 47,
      "max": [
        2.7755575615628914e-17,
        1.072125792503357,
        5.293955920339377e-23
      ],
      "min": [
        -5.551115123125783e-17,
        1.072125792503357,
        -2.6469779601696886e-23
      ],
      "type": "VEC3"
    },
    {
      "bufferView": 6,
      "byteOffset": 1776,
      "componentType": 5126,
      "count": 47,
      "max": [
        1.559999942779541
      ],
      "min": [
        0.0
      ],
      "type": "SCALAR"
    },
    {
      "bufferView": 8,
      "byteOffset": 3248,
      "componentType": 5126,
      "count": 47,
      "max": [
        9.926167350636332e-24,
        3.7223127564886245e-24,
        2.7755575615628914e-17,
        1.0
      ],
      "min": [
        -9.926167350636332e-24,
        -1.6543612251060553e-24,
        -1.3877787807814457e-17,
        1.0
      ],
      "type": "VEC4"
    },
    {
      "bufferView": 6,
      "byteOffset": 1964,
      "componentType": 5126,
      "count": 47,
      "max": [
        1.559999942779541
      ],
      "min": [
        0.0
      ],
      "type": "SCALAR"
    },
    {
      "bufferView": 7,
      "byteOffset": 2892,
      "componentType": 5126,
      "count": 47,
      "max": [
        2.7755575615628914e-17,
        1.072125792503357,
        5.293955920339377e-23
      ],
      "min": [
        -5.551115123125783e-17,
        1.072125792503357,
        -2.6469779601696886e-23
      ],
      "type": "VEC3"
    },
    {
      "bufferView": 6,
      "byteOffset": 2152,
      "componentType": 5126,
      "count": 47,
      "max": [
        1.559999942779541
      ],
      "min": [
        0.0
      ],
      "type": "SCALAR"
    },
    {
      "bufferView": 8,
      "byteOffset": 4000,
      "componentType": 5126,
      "count": 47,
      "max": [
        0.47818130254745483,
        -4.187871809335775e-07,
        -2.2801444288234052e-07,
        0.878261148929596
      ],
      "min": [
        0.47818130254745483,
        -4.187871809335775e-07,
        -2.2801444288234052e-07,
        0.878261148929596
      ],
      "type": "VEC4"
    },
    {
      "bufferView": 6,
      "byteOffset": 2340,
      "componentType": 5126,
      "count": 75,
      "max": [
        1.559999942779541
      ],
      "min": [
        0.0
      ],
      "type": "SCALAR"
    },
    {
      "bufferView": 7,
      "byteOffset": 3456,
      "componentType": 5126,
      "count": 75,
      "max": [
        2.7755575615628914e-17,
        1.072125792503357,
        5.293955920339377e-23
      ],
      "min": [
        -5.551115123125783e-17,
        1.072125792503357,
        -5.293955920339377e-23
      ],
      "type": "VEC3"
    },
    {
      "bufferView": 6,
      "byteOffset": 2640,
      "componentType": 5126,
      "count": 78,
      "max": [
        1.559999942779541
      ],
      "min": [
        0.0
      ],
      "type": "SCALAR"
    },
    {
      "bufferView": 8,
      "byteOffset": 4752,
      "componentType": 5126,
      "count": 78,
      "max": [
        -0.4594271779060364,
        0.023578470572829247,
        -5.4840061380900806e-08,
        0.8879024386405945
      ],
      "min": [
        -0.46003180742263794,
        1.0584621179532405e-07,
        -0.04550839960575104,
        0.8867354393005371
      ],
      "type": "VEC4"
    },
    {
      "bufferView": 6,
      "byteOffset": 2952,
      "componentType": 5126,
      "count": 78,
      "max": [
        1.559999942779541
      ],
      "min": [
        0.0
      ],
      "type": "SCALAR"
    },
    {
      "bufferView": 8,
      "byteOffset": 6000,
      "componentType": 5126,
      "count": 78,
      "max": [
        4.034748357639728e-08,
        2.866759274411379e-09,
        0.07105175405740738,
        1.0
      ],
      "min": [
        4.024551003567467e-08,
        -1.4715526575059812e-09,
        -0.036471981555223465,
        0.9974726438522339
      ],
      "type": "VEC4"
    },
    {
      "bufferView": 6,
      "byteOffset": 3264,
      "componentType": 5126,
      "count": 78,
      "max": [
        1.559999942779541
      ],
      "min": [
        0.0
      ],
      "type": "SCALAR"
    },
    {
      "bufferView": 8,
      "byteOffset": 7248,
      "componentType": 5126,
      "count": 78,
      "max": [
        -0.4987005889415741,
        -0.2810644507408142,
        -0.1408153623342514,
        0.7978221774101257
      ],
      "min": [
        -0.5144449472427368,
        -0.3081372082233429,
        -0.18322201073169708,
        0.7891634106636047
      ],
      "type": "VEC4"
    },
    {
      "bufferView": 6,
      "byteOffset": 3576,
      "componentType": 5126,
      "count": 57,
      "max": [
        1.559999942779541
      ],
      "min": [
        0.0
      ],
      "type": "SCALAR"
    },
    {
      "bufferView": 8,
      "byteOffset": 8496,
      "componentType": 5126,
      "count": 57,
      "max": [
        -0.5105253458023071,
        0.2929617464542389,
        0.1720372587442398,
        0.8000039458274841
      ],
      "min": [
        -0.5297802090644836,
        0.2565065920352936,
        0.11632274836301804,
        0.7898989915847778
      ],
      "type": "VEC4"
    }
  ],
  "animations": [
    {
      "channels": [
        {
          "sampler": 0,
          "target": {
            "node": 14,
            "path": "translation"
          }
        },
        {
          "sampler": 1,
          "target": {
            "node": 14,
            "path": "rotation"
          }
        },
        {
          "sampler": 2,
          "target": {
            "node": 13,
            "path": "translation"
          }
        },
        {
          "sampler": 3,
          "target": {
            "node": 13,
            "path": "rotation"
          }
        },
        {
          "sampler": 4,
          "target": {
            "node": 15,
            "path": "translation"
          }
        },
        {
          "sampler": 5,
          "target": {
            "node": 15,
            "path": "rotation"
          }
        },
        {
          "sampler": 6,
          "target": {
            "node": 12,
            "path": "translation"
          }
        },
        {
          "sampler": 7,
          "target": {
            "node": 12,
            "path": "rotation"
          }
        },
        {
          "sampler": 8,
          "target": {
            "node": 16,
            "path": "translation"
          }
        },
        {
          "sampler": 9,
          "target": {
            "node": 16,
            "path": "rotation"
          }
        },
        {
          "sampler": 10,
          "target": {
            "node": 17,
            "path": "translation"
          }
        },
        {
          "sampler": 11,
          "target": {
            "node": 17,
            "path": "rotation"
          }
        },
        {
          "sampler": 12,
          "target": {
            "node": 11,
            "path": "rotation"
          }
        },
        {
          "sampler": 13,
          "target": {
            "node": 18,
            "path": "rotation"
          }
        },
        {
          "sampler": 14,
          "target": {
            "node": 19,
            "path": "rotation"
          }
        }
      ],
      "name": "Armature|ArmatureAction",
      "samplers": [
        {
          "input": 8,
          "interpolation": "LINEAR",
          "output": 9
        },
        {
          "input": 10,
          "interpolation": "LINEAR",
          "output": 11
        },
        {
          "input": 12,
          "interpolation": "LINEAR",
          "output": 13
        },
        {
          "input": 14,
          "interpolation": "LINEAR",
          "output": 15
        },
        {
          "input": 16,
          "interpolation": "LINEAR",
          "output": 17
        },
        {
          "input": 18,
          "interpolation": "LINEAR",
          "output": 19
        },
        {
          "input": 20,
          "interpolation": "LINEAR",
          "output": 21
        },
        {
          "input": 22,
          "interpolation": "LINEAR",
          "output": 23
        },
        {
          "input": 24,
          "interpolation": "LINEAR",
          "output": 25
        },
        {
          "input": 26,
          "interpolation": "LINEAR",
          "output": 27
        },
        {
          "input": 28,
          "interpolation": "LINEAR",
          "output": 29
        },
        {
          "input": 30,
          "interpolation": "LINEAR",
          "output": 31
        },
        {
          "input": 32,
          "interpolation": "LINEAR",
          "output": 33
        },
        {
          "input": 34,
          "interpolation": "LINEAR",
          "output": 35
        },
        {
          "input": 36,
          "interpolation": "LINEAR",
          "output": 37
        }
      ]
    }
  ],
  "asset": {
    "extras": {
      "author": "Thunder (https://sketchfab.com/thunderpwn)",
      "license": "CC-BY-4.0 (http://creativecommons.org/licenses/by/4.0/)",
      "source": "https://sketchfab.com/3d-models/trout-cc4eef17bff24cb58358cfa1b7e045a4",
      "title": "Trout"
    },
    "generator": "Sketchfab-12.66.0",
    "version": "2.0"
  },
  "bufferViews": [
    {
      "buffer": 0,
      "byteLength": 7248,
      "byteStride": 8,
      "name": "shortBufferViews",
      "target": 34962
    },
    {
      "buffer": 0,
      "byteLength": 21696,
      "byteOffset": 7248,
      "name": "floatBufferViews",
      "target": 34963
    },
    {
      "buffer": 0,
      "byteLength": 7248,
      "byteOffset": 28944,
      "byteStride": 8,
      "name": "floatBufferViews",
      "target": 34962
    },
    {
      "buffer": 0,
      "byteLength": 21744,
      "byteOffset": 36192,
      "byteStride": 12,
      "name": "floatBufferViews",
      "target": 34962
    },
    {
      "buffer": 0,
      "byteLength": 28992,
      "byteOffset": 57936,
      "byteStride": 16,
      "name": "floatBufferViews",
      "target": 34962
    },
    {
      "buffer": 0,
      "byteLength": 704,
      "byteOffset": 86928,
      "name": "floatBufferViews"
    },
    {
      "buffer": 0,
      "byteLength": 3804,
      "byteOffset": 87632,
      "name": "floatBufferViews"
    },
    {
      "buffer": 0,
      "byteLength": 4356,
      "byteOffset": 91436,
      "byteStride": 12,
      "name": "floatBufferViews"
    },
    {
      "buffer": 0,
      "byteLength": 9408,
      "byteOffset": 95792,
      "byteStride": 16,
      "name": "floatBufferViews"
    }
  ],
  "buffers": [
    {
      "byteLength": 105200,
      "uri": "scene.bin"
    }
  ],
  "images": [
    {
      "uri": "textures/Trout_baseColor.png"
    },
    {
      "uri": "textures/Trout_metallicRoughness.png"
    },
    {
      "uri": "textures/Trout_normal.png"
    }
  ],
  "materials": [
    {
      "doubleSided": true,
      "name": "Trout",
      "normalTexture": {
        "index": 2
      },
      "pbrMetallicRoughness": {
        "baseColorTexture": {
          "index": 0
        },
        "metallicRoughnessTexture": {
          "index": 1
        }
      }
    }
  ],
  "meshes": [
    {
      "name": "Cube_Trout_0",
      "primitives": [
        {
          "attributes": {
            "JOINTS_0": 6,
            "NORMAL": 1,
            "POSITION": 0,
            "TANGENT": 2,
            "TEXCOORD_0": 3,
            "TEXCOORD_1": 3,
            "WEIGHTS_0": 7
          },
          "indices": 4,
          "material": 0,
          "mode": 4
        }
      ]
    }
  ],
  "nodes": [
    {
      "children": [
        1
      ],
      "matrix": [
        1.0,
        0.0,
        0.0,
        0.0,
        0.0,
        2.220446049250313e-16,
        -1.0,
        0.0,
        0.0,
        1.0,
        2.220446049250313e-16,
        0.0,
        0.0,
        0.0,
        0.0,
        1.0
      ],
      "name": "Sketchfab_model"
    },
    {
      "children": [
        2
      ],
      "matrix": [
        0.009999999776482582,
        0.0,
        0.0,
        0.0,
        0.0,
        0.0,
        0.009999999776482582,
        0.0,
        0.0,
        -0.009999999776482582,
        0.0,
        0.0,
        0.0,
        0.0,
        0.0,
        1.0
      ],
      "name": "trout.fbx"
    },
    {
      "children": [
        3
      ],
      "name": "Object_2"
    },
    {
      "children": [
        4,
        5
      ],
      "name": "RootNode"
    },
    {
      "name": "Cube",
      "rotation": [
        0.5,
        -0.4999999701976776,
        -0.5,
        -0.5
      ],
      "scale": [
        0.06146157532930374,
        0.029925696551799774,
        0.06146157532930374
      ],
      "translation": [
        0.0,
        2.2737367544323206e-13,
        3.814697265625e-06
      ]
    },
    {
      "children": [
        6
      ],
      "name": "Armature",
      "rotation": [
        1.0,
        0.0,
        0.0,
        7.549790126404332e-08
      ],
      "scale": [
        11.916566848754883,
        11.916566848754883,
        11.916566848754883
      ],
      "translation": [
        0.0,
        0.0,
        25.40692138671875
      ]
    },
    {
      "children": [
        7,
        9,
        8
      ],
      "name": "Object_6"
    },
    {
      "children": [
        10
      ],
      "name": "_rootJoint"
    },
    {
      "matrix": [
        2.6865703698311186e-09,
        0.0,
        -0.061461575135995476,
        0.0,
        -0.029925695961761086,
        1.8324203885913815e-18,
        -1.3080935184226453e-09,
        0.0,
        3.763436063042567e-18,
        0.061461575135995476,
        1.6450499020488984e-25,
        0.0,
        0.0,
        2.296596073037005e-13,
        2.683434924932726e-06,
        1.0
      ],
      "name": "Object_8"
    },
    {
      "mesh": 0,
      "name": "Object_9",
      "skin": 0
    },
    {
      "children": [
        11,
        18,
        19
      ],
      "name": "Bone_00",
      "rotation": [
        0.7071068286895752,
        0.0,
        0.0,
        0.7071067094802856
      ]
    },
    {
      "children": [
        12,
        16,
        17
      ],
      "name": "Bone.001_01",
      "rotation": [
        4.019347343842128e-08,
        -8.726557809701774e-10,
        0.043110258877277374,
        0.9990703463554382
      ],
      "translation": [
        0.0,
        0.5416867136955261,
        0.0
      ]
    },
    {
      "children": [
        13,
        15
      ],
      "name": "Bone.002_02",
      "rotation": [
        -6.938907138797029e-18,
        -8.326672684688674e-17,
        -6.938893903907228e-18,
        1.0
      ],
      "translation": [
        1.3877787807814457e-16,
        1.0721256732940674,
        7.924216838262055e-15
      ]
    },
    {
      "children": [
        14
      ],
      "name": "Bone.003_03",
      "rotation": [
        0.08018078655004501,
        0.002425544196739793,
        0.029949091374874115,
        0.9963274598121643
      ],
      "scale": [
        1.0,
        0.9999999403953552,
        0.9999999403953552
      ],
      "translation": [
        -7.450580152834618e-09,
        0.9329947829246521,
        -4.996003610813204e-16
      ]
    },
    {
      "name": "Bone.004_04",
      "rotation": [
        -0.07850897312164307,
        0.023520564660429955,
        0.22526004910469055,
        0.970845639705658
      ],
      "scale": [
        1.0,
        1.0,
        1.0000001192092896
      ],
      "translation": [
        2.2467702365247533e-08,
        0.7541543841362,
        -4.563480615615845e-08
      ]
    },
    {
      "name": "Bone.009_05",
      "rotation": [
        -0.41781535744667053,
        9.329496064580667e-10,
        -9.61930202159067e-10,
        0.9085320830345154
      ],
      "translation": [
        -7.450580152834618e-09,
        0.9329947829246521,
        -4.996003610813204e-16
      ]
    },
    {
      "name": "Bone.007_06",
      "rotation": [
        0.47818130254745483,
        -4.1798276129156875e-07,
        -2.2711417102527776e-07,
        0.878261148929596
      ],
      "scale": [
        0.9999999403953552,
        1.0,
        0.9999999403953552
      ],
      "translation": [
        1.3877787807814457e-16,
        1.0721256732940674,
        7.924216838262055e-15
      ]
    },
    {
      "name": "Bone.008_07",
      "rotation": [
        -0.4600256383419037,
        0.0023803021758794785,
        -0.00459405267611146,
        0.8878905773162842
      ],
      "scale": [
        0.9999999403953552,
        0.9999999403953552,
        0.9999999403953552
      ],
      "translation": [
        1.3877787807814457e-16,
        1.0721256732940674,
        7.924216838262055e-15
      ]
    },
    {
      "name": "Bone.005_08",
      "rotation": [
        -0.5129221081733704,
        -0.28383374214172363,
        -0.1789647489786148,
        0.7901397943496704
      ],
      "scale": [
        1.0,
        0.9999999403953552,
        1.0
      ],
      "translation": [
        0.0,
        0.5416867136955261,
        0.0
      ]
    },
    {
      "name": "Bone.006_09",
      "rotation": [
        -0.5184073448181152,
        0.27877673506736755,
        0.13833218812942505,
        0.7964932918548584
      ],
      "scale": [
        0.9999998807907104,
        0.9999999403953552,
        0.9999999403953552
      ],
      "translation": [
        0.0,
        0.5416867136955261,
        0.0
      ]
    }
  ],
  "samplers": [
    {
      "magFilter": 9729,
      "minFilter": 9987,
      "wrapS": 10497,
      "wrapT": 10497
    }
  ],
  "scene": 0,
  "scenes": [
    {
      "name": "Sketchfab_Scene",
      "nodes": [
        0
      ]
    }
  ],
  "skins": [
    {
      "inverseBindMatrices": 5,
      "joints": [
        7,
        10,
        11,
        12,
        13,
        14,
        15,
        16,
        17,
        18,
        19
      ],
      "skeleton": 7
    }
  ],
  "textures": [
    {
      "sampler": 0,
      "source": 0
    },
    {
      "sampler": 0,
      "source": 1
    },
    {
      "sampler": 0,
      "source": 2
    }
  ]
}
